
  <svg
    width="1000"
    height="1000"
    viewBox="0 0 1000 1000"
    xmlns="http://www.w3.org/2000/svg"
  >
    <defs>
      
      
      
      
      
      
      
      <clipPath id="shape">
        <path fill="currentColor" d="M786,591.5Q752,683,698,812.5Q644,942,511,909Q378,876,355.5,748.5Q333,621,246,560.5Q159,500,155.5,373.5Q152,247,255,155.5Q358,64,491,91.5Q624,119,752.5,171Q881,223,850.5,361.5Q820,500,786,591.5Z"></path>
      </clipPath>
    </defs>
  
    

    <g  clip-path="url(#shape)">
      <path fill="#d9effd" d="M786,591.5Q752,683,698,812.5Q644,942,511,909Q378,876,355.5,748.5Q333,621,246,560.5Q159,500,155.5,373.5Q152,247,255,155.5Q358,64,491,91.5Q624,119,752.5,171Q881,223,850.5,361.5Q820,500,786,591.5Z" />
    </g>

    
  
  </svg>