<svg xmlns="http://www.w3.org/2000/svg" viewBox="0 0 1440 320"><path fill="#0099ff" fill-opacity="1" d="M0,128L30,138.7C60,149,120,171,180,197.3C240,224,300,256,360,266.7C420,277,480,267,540,234.7C600,203,660,149,720,138.7C780,128,840,160,900,192C960,224,1020,256,1080,272C1140,288,1200,288,1260,256C1320,224,1380,160,1410,128L1440,96L1440,320L1410,320C1380,320,1320,320,1260,320C1200,320,1140,320,1080,320C1020,320,960,320,900,320C840,320,780,320,720,320C660,320,600,320,540,320C480,320,420,320,360,320C300,320,240,320,180,320C120,320,60,320,30,320L0,320Z"></path></svg>